<?xml version="1.0" encoding="UTF-8"?>
<svg id="_图层_1" data-name="图层 1" xmlns="http://www.w3.org/2000/svg" viewBox="0 0 69.23 51.36">
  <defs>
    <style>
      .cls-1 {
        fill: #fff;
      }

      .cls-1, .cls-2 {
        stroke-width: 0px;
      }

      .cls-2 {
        fill: #f40a0b;
      }
    </style>
  </defs>
  <rect class="cls-1" x="-172.43" y="-18.58" width="252.49" height="73.99"/>
  <rect class="cls-2" width="69.23" height="51.36" rx="8.37" ry="8.37"/>
  <g>
    <path class="cls-1" d="M48.74,17.1c0-.28.02-.51,0-.72-.05-.39.15-.5.48-.51.68-.01,1.37-.02,2.05-.02.1,0,.2,0,.29,0,.85.02.86.02.86.85,0,.3.1.38.4.41.88.09,1.81.09,2.63.38,1.37.5,2.2,1.55,2.31,3.06.06.9.08,1.81.08,2.71,0,.38.15.5.5.56.62.1,1.26.19,1.85.4,1.13.41,1.76,1.3,1.82,2.48.09,1.82.12,3.64.09,5.46-.03,1.91-1.22,3.1-3.13,3.26-.88.08-1.74-.01-2.53-.45-.87-.48-1.43-1.21-1.57-2.21-.06-.45-.02-.48.42-.49.92-.02,1.83-.05,2.75-.05.28,0,.39-.08.39-.37-.01-1.06,0-2.13-.02-3.19-.02-.76-.36-1.1-1.11-1.12-1.48-.03-2.96-.03-4.43-.06-.35,0-.45.13-.45.47,0,2.35-.01,4.69,0,7.04,0,.35-.1.46-.46.45-.93-.02-1.86-.02-2.79,0-.32,0-.44-.07-.44-.42.01-2.32,0-4.64,0-6.96q0-.55-.56-.55c-.84,0-1.69-.01-2.53,0-.3,0-.44-.07-.44-.41,0-.95-.02-1.91-.06-2.86-.01-.31.1-.4.4-.4.92.01,1.83,0,2.75,0,.35,0,.53-.14.53-.49,0-.71,0-1.41,0-2.12,0-.32-.15-.47-.5-.46-.56,0-1.12-.05-1.68-.06-.26,0-.34-.1-.33-.35.03-.98.06-1.95.07-2.93,0-.25.08-.35.34-.34.66.01,1.31,0,2.03,0ZM52.42,22.25s0,0,.01,0c0,.41,0,.83,0,1.24,0,.2.07.29.28.29.41,0,.83,0,1.24,0,.2,0,.29-.08.29-.28.01-.43.05-.85.05-1.28,0-1.32-.22-1.51-1.53-1.43-.01,0-.02,0-.04,0-.23-.02-.33.07-.32.32.02.38,0,.76,0,1.13Z"/>
    <path class="cls-1" d="M32.37,35.45c.26-.55.46-.99.68-1.42.32-.66.66-1.31.97-1.97.12-.25.27-.33.54-.33.98,0,1.95,0,2.93,0,.29,0,.38-.09.38-.38-.02-3.38-.02-6.77-.02-10.15,0-.39-.21-.46-.5-.46-.46-.01-.93,0-1.39.01-.32.01-.41-.12-.41-.43.02-.9.01-1.81-.01-2.71,0-.31.08-.44.4-.44,2.53.02,5.06.02,7.58.02.31,0,.42.11.42.43-.02.9-.02,1.81.01,2.71.01.39-.13.48-.48.47-.54-.02-1.07,0-1.61,0-.24,0-.31.09-.31.32,0,3.43.01,6.86.01,10.3,0,.26.12.3.33.3.96.02,1.93.06,2.89.07.28,0,.39.09.38.38-.02.93-.02,1.86,0,2.78,0,.36-.12.46-.47.46-3.1,0-6.21.02-9.31.03-.96,0-1.93,0-3.02,0Z"/>
    <path class="cls-1" d="M17.93,24.44c0,2.32.01,4.64,0,6.96,0,.58-.06,1.17-.16,1.75-.25,1.34-1.1,2.1-2.46,2.28-2,.27-3.2-1.06-3.43-2.79-.03-.24.05-.34.29-.34.56,0,1.12-.03,1.69-.01.32,0,.41-.08.41-.41-.01-2.98,0-5.96,0-8.94,0-2.2.01-4.4,0-6.6,0-.37.11-.49.48-.47.92.03,1.83.03,2.75.01.35,0,.47.11.47.46,0,2.7,0,5.4,0,8.1,0,0,0,0-.01,0Z"/>
    <path class="cls-1" d="M29.33,24.43c-.34,0-.61.02-.89,0-.54-.05-1.1-.09-1.63-.22-.63-.15-.93-.6-.75-1.21.28-.9.63-1.79,1.03-2.65.66-1.39,1.39-2.75,2.07-4.12.13-.26.28-.35.57-.35.92.02,1.83,0,2.75,0,.13,0,.26.02.46.03-.06.2-.09.37-.16.51-.53,1.06-1.08,2.11-1.61,3.17-.19.38-.36.78-.49,1.18-.04.13.06.31.09.47.13-.09.25-.18.38-.27.11-.07.22-.19.33-.19,1.07,0,2.15,0,3.22.01.02,0,.04.02.12.07-.11.27-.22.57-.35.84-.73,1.44-1.47,2.87-2.19,4.31-.14.27-.27.55-.36.84-.12.38,0,.57.4.59.41.03.83.03,1.24.02.3,0,.38.11.25.37-.34.69-.75,1.35-1.01,2.07-.21.56-.54.7-1.07.67-1.1-.05-2.2,0-3.29-.12-.96-.1-1.36-.72-1.06-1.64.28-.85.7-1.66,1.08-2.48.23-.5.5-.98.74-1.47.06-.12.08-.24.15-.44Z"/>
    <path class="cls-1" d="M9.08,33.73c-.28-.5-.51-.9-.72-1.3-.39-.77-.77-1.55-1.15-2.33-.13-.27-.09-.52-.04-.81.18-.93.33-1.87.42-2.82.16-1.77.27-3.55.39-5.33.02-.3.14-.39.43-.39,1,.01,2,.01,3-.01.36,0,.44.14.42.45-.1,1.4-.15,2.8-.29,4.2-.13,1.36-.28,2.72-.53,4.06-.23,1.28-.69,2.49-1.41,3.59-.14.21-.31.4-.54.69Z"/>
    <path class="cls-1" d="M22.9,33.68c-.88-1.29-1.45-2.63-1.74-4.1-.47-2.36-.62-4.74-.75-7.13-.03-.46-.04-.93-.07-1.39-.01-.22.06-.31.29-.31,1.03.02,2.05.03,3.08.03.28,0,.31.16.32.37.12,1.69.23,3.39.37,5.08.09,1.1.09,2.22.46,3.29.04.13.04.31-.02.43-.55,1.14-1.11,2.28-1.68,3.41-.05.1-.15.19-.25.32Z"/>
    <path class="cls-1" d="M32.41,31.78c-.05.14-.07.23-.11.31-.52,1.02-1.03,2.05-1.57,3.06-.06.12-.22.25-.35.26-1.71.17-3.41.1-5.11-.14-.08-.01-.16-.04-.27-.07.02-.1.02-.2.06-.28.54-1.07,1.08-2.13,1.64-3.19.06-.12.28-.26.39-.23,1.61.33,3.24.17,4.85.24.14,0,.28.02.46.04Z"/>
    <path class="cls-1" d="M59.42,20.82c-1.23-.07-.98.07-1-1.02,0-.4,0-.81.07-1.2.17-.98.97-1.63,1.86-1.56.92.08,1.73.91,1.76,1.81.04.94-.63,1.73-1.6,1.88-.36.06-.73.06-1.09.09Z"/>
  </g>
</svg>